<?xml version="1.0" encoding="utf-8"?>
<!-- Generator: Adobe Illustrator 24.1.3, SVG Export Plug-In . SVG Version: 6.00 Build 0)  -->
<svg version="1.1" id="Layer_1" xmlns="http://www.w3.org/2000/svg" xmlns:xlink="http://www.w3.org/1999/xlink" x="0px" y="0px"
	 viewBox="0 0 126.7 126.7" style="enable-background:new 0 0 126.7 126.7;" xml:space="preserve">
<style type="text/css">
	.st0{fill:#FEDA5D;}
	.st1{fill:#BBBCBC;}
	.st2{fill:#D7D7D7;}
	.st3{fill:#E9E9E9;}
	.st4{fill:#828383;}
	.st5{fill:#E8E7E7;}
</style>
<g id="Layer_2_1_">
	<g id="Layer_1-2">
		<path class="st0" d="M0,63.3C0,28.4,28.4,0,63.3,0s63.3,28.4,63.3,63.3c0,35-28.4,63.3-63.3,63.3C28.4,126.7,0,98.3,0,63.3
			C0,63.3,0,63.3,0,63.3z"/>
		<polygon class="st1" points="37.9,58.3 62.7,71.2 87.4,58.3 104.3,49.3 104.3,43.2 21,43.2 21,49.3 		"/>
		<polygon class="st2" points="62.6,27.2 21,44.6 21,48.9 104.3,48.9 104.3,44.6 		"/>
		<polygon class="st1" points="62.6,22.5 21,42.8 21,47 62.7,27.7 104.3,47 104.3,42.8 		"/>
		
			<rect x="34.9" y="24.8" transform="matrix(0.9875 -0.1577 0.1577 0.9875 -6.8967 10.412)" class="st3" width="54.6" height="47.8"/>
		
			<rect x="38.1" y="32.4" transform="matrix(0.9875 -0.1578 0.1578 0.9875 -4.8789 9.9752)" class="st4" width="44.5" height="6.5"/>
		
			<rect x="40.2" y="43.8" transform="matrix(0.9875 -0.1578 0.1578 0.9875 -6.6497 10.4514)" class="st4" width="44.5" height="6.5"/>
		
			<rect x="42.2" y="56.7" transform="matrix(0.9875 -0.1578 0.1578 0.9875 -8.7572 9.6343)" class="st4" width="28.3" height="6.5"/>
		<polygon class="st5" points="104.3,94.1 21,94.1 21,49.3 62.6,71.7 104.3,49.3 		"/>
		<polygon class="st1" points="104.3,49.3 104.1,48.9 21,93.5 21,94.1 22.9,94.1 104.3,50.8 		"/>
		<polygon class="st1" points="21,49.3 21.2,48.9 104.3,93.5 104.3,94.1 102.4,94.1 21,50.8 		"/>
	</g>
</g>
</svg>
