<svg xmlns="http://www.w3.org/2000/svg" width="126.666" height="126.668" viewBox="0 0 126.666 126.668"><g id="Layer_2" data-name="Layer 2"><g id="Layer_1-2" data-name="Layer 1"><path d="M0,63.3321A63.333,63.333,0,1,1,63.3339,126.668,63.3322,63.3322,0,0,1,0,63.3321Z" fill="#d3373a"/><path d="M0,63.3321A63.333,63.333,0,1,1,63.3339,126.668,63.3322,63.3322,0,0,1,0,63.3321Z" fill="#d3383a"/><polygon points="37.926 58.293 62.685 71.242 87.366 58.293 104.316 49.348 104.316 43.227 20.976 43.227 20.976 49.348 37.926 58.293" fill="#bbbcbc"/><polygon points="62.646 27.218 20.976 44.639 20.976 48.876 104.316 48.876 104.316 44.639 62.646 27.218" fill="#d7d7d7"/><polygon points="62.646 22.509 20.976 42.756 20.976 46.993 62.685 27.659 104.316 46.993 104.316 42.756 62.646 22.509" fill="#bbbcbc"/><rect x="34.862" y="24.7536" width="54.6006" height="47.8225" transform="translate(-6.8967 10.4121) rotate(-9.0735)" fill="#e9e9e9"/><rect x="38.1272" y="32.4498" width="44.5296" height="6.5372" transform="translate(-4.8789 9.9752) rotate(-9.0773)" fill="#828383"/><rect x="40.2417" y="43.8419" width="44.5296" height="6.5372" transform="translate(-6.6497 10.4515) rotate(-9.0773)" fill="#828383"/><rect x="42.167" y="56.7019" width="28.2637" height="6.5372" transform="translate(-8.7572 9.6343) rotate(-9.0783)" fill="#828383"/><polygon points="104.316 94.078 20.976 94.078 20.976 49.278 62.648 71.713 104.316 49.278 104.316 94.078" fill="#e8e7e7"/><polygon points="104.316 49.348 104.094 48.933 20.976 93.544 20.976 94.078 22.913 94.078 104.316 50.823 104.316 49.348" fill="#bbbcbc"/><polygon points="20.976 49.348 21.199 48.933 104.316 93.544 104.316 94.078 102.38 94.078 20.976 50.823 20.976 49.348" fill="#bbbcbc"/></g></g></svg>