<svg id="Layer_1" data-name="Layer 1" xmlns="http://www.w3.org/2000/svg" width="126.666" height="126.668" viewBox="0 0 126.666 126.668"><path d="M242.54,395.9854a63.333,63.333,0,1,1,63.3339,63.3359A63.3322,63.3322,0,0,1,242.54,395.9854Z" transform="translate(-242.5404 -332.6533)" fill="#d3373a"/><path d="M242.54,395.9854a63.333,63.333,0,1,1,63.3339,63.3359A63.3322,63.3322,0,0,1,242.54,395.9854Z" transform="translate(-242.5404 -332.6533)" fill="#942e28"/><polygon points="37.926 58.293 62.685 71.242 87.366 58.293 104.316 49.348 104.316 43.227 20.976 43.227 20.976 49.348 37.926 58.293" fill="#bbbcbc"/><polygon points="62.646 27.218 20.976 44.639 20.976 48.876 104.316 48.876 104.316 44.639 62.646 27.218" fill="#d7d7d7"/><polygon points="62.646 22.509 20.976 42.756 20.976 46.993 62.685 27.659 104.316 46.993 104.316 42.756 62.646 22.509" fill="#bbbcbc"/><rect x="277.4025" y="357.4069" width="54.6006" height="47.8225" transform="translate(-298.8622 -279.8296) rotate(-9.0735)" fill="#e9e9e9"/><rect x="280.6676" y="365.1032" width="44.5296" height="6.5372" transform="translate(-296.8636 -280.2472) rotate(-9.0773)" fill="#828383"/><rect x="282.7821" y="376.4952" width="44.5296" height="6.5372" transform="translate(-298.6344 -279.7709) rotate(-9.0773)" fill="#828383"/><rect x="284.7074" y="389.3552" width="28.2637" height="6.5372" transform="translate(-300.7469 -280.5831) rotate(-9.0783)" fill="#828383"/><polygon points="104.316 94.078 20.976 94.078 20.976 49.278 62.648 71.713 104.316 49.278 104.316 94.078" fill="#e8e7e7"/><polygon points="104.316 49.348 104.094 48.933 20.976 93.544 20.976 94.078 22.913 94.078 104.316 50.823 104.316 49.348" fill="#bbbcbc"/><polygon points="20.976 49.348 21.199 48.933 104.316 93.544 104.316 94.078 102.38 94.078 20.976 50.823 20.976 49.348" fill="#bbbcbc"/></svg>